<svg width="35" height="35" viewBox="0 0 35 35" fill="none" xmlns="http://www.w3.org/2000/svg">
<path d="M10.0288 26.3857H15.0433H20.0578" stroke="white" stroke-width="1.5" stroke-linecap="round" stroke-linejoin="round"/>
<path d="M10.0288 20.7192H10.7452H11.4615" stroke="white" stroke-width="1.5" stroke-linecap="round" stroke-linejoin="round"/>
<path d="M10.0288 15.0522H12.1779H14.327" stroke="white" stroke-width="1.5" stroke-linecap="round" stroke-linejoin="round"/>
<path d="M10.0288 3.71924H23.6396L30.0868 10.0942V27.8026" stroke="white" stroke-width="1.5" stroke-linecap="round" stroke-linejoin="round"/>
<path d="M4.29834 29.9276V10.0942C4.29834 8.92063 5.26051 7.96924 6.44741 7.96924H20.4185C20.6465 7.96924 20.8651 8.05879 21.0263 8.2182L25.5373 12.6786C25.6985 12.838 25.7891 13.0542 25.7891 13.2797V29.9276C25.7891 31.1011 24.8269 32.0526 23.64 32.0526H6.44741C5.26051 32.0526 4.29834 31.1011 4.29834 29.9276Z" stroke="white" stroke-width="1.5" stroke-linecap="round" stroke-linejoin="round"/>
<path d="M20.0581 12.7859V8.4701C20.0581 8.19348 20.2849 7.96924 20.5647 7.96924C20.699 7.96924 20.8278 8.02201 20.9229 8.11593L25.6405 12.7809C25.7357 12.8748 25.789 13.0022 25.789 13.135C25.789 13.4117 25.5622 13.6359 25.2824 13.6359H20.9177C20.4429 13.6359 20.0581 13.2553 20.0581 12.7859Z" fill="white" stroke="white" stroke-width="1.5" stroke-linecap="round" stroke-linejoin="round"/>
</svg>
